<?xml version="1.0" encoding="UTF-8"?>
<svg id="uuid-c4566bcc-3286-4d40-90b8-1a07d02124ce" xmlns="http://www.w3.org/2000/svg" version="1.1" viewBox="0 0 16 16">
  <!-- Generator: Adobe Illustrator 29.6.1, SVG Export Plug-In . SVG Version: 2.1.1 Build 9)  -->
  <path d="M6,9c-1.1,0-2,.9-2,2v1h-2v2h12v-2h-2v-1c0-1.1-.9-2-2-2h-4Z" fill="#8eef97"/>
  <g>
    <rect x="9.8" y=".8" width="1.6" height="2.7" rx=".2" ry=".2" transform="translate(1.6 8.1) rotate(-45)" fill="#8eef97"/>
    <path d="M10.2,4.4l-2.3,2.3s-.1,0-.2,0l-2.1.7c-.2,0-.4-.2-.4-.4l.7-2.1v-.3c.1,0,2.4-2.2,2.4-2.2.1-.1.3-.1.4,0l1.5,1.5c.1.1.1.3,0,.4h0Z" fill="#8eef97"/>
  </g>
</svg>