<?xml version="1.0" encoding="UTF-8"?>
<svg id="Layer_1" xmlns="http://www.w3.org/2000/svg" version="1.1" viewBox="0 0 16 16">
  <!-- Generator: Adobe Illustrator 29.6.1, SVG Export Plug-In . SVG Version: 2.1.1 Build 9)  -->
  <path d="M5.5,9c-.8,0-1.5.7-1.5,1.5v1.5h-2v2h12v-2h-2v-1.5c0-.8-.7-1.5-1.5-1.5h-5Z" fill="#8eef97"/>
  <path d="M11.2,5.2c0,.9-.6,1.6-1.4,2v-1.6c0-.4-.3-.7-.7-.7h-2.2c-.4,0-.7.3-.7.7v1.6c-.8-.4-1.4-1.2-1.4-2s.8-1.9,1.9-2.3V.9h2.6v2c1.1.4,1.9,1.3,1.9,2.3Z" fill="#8eef97"/>
</svg>